<mxfile host="app.diagrams.net" modified="2022-02-03T14:50:43.095Z" agent="5.0 (Windows NT 10.0; Win64; x64) AppleWebKit/537.36 (KHTML, like Gecko) Chrome/95.0.4638.69 Safari/537.36 OPR/81.0.4196.61" etag="0UZ55mNTMRz5fLSCdiDZ" version="16.5.3" type="github">
  <diagram id="D04rZwt6gv_sUs3MRhnH" name="Page-1">
    <mxGraphModel dx="1151" dy="604" grid="1" gridSize="10" guides="1" tooltips="1" connect="1" arrows="1" fold="1" page="1" pageScale="1" pageWidth="827" pageHeight="1169" math="0" shadow="0">
      <root>
        <mxCell id="0" />
        <mxCell id="1" parent="0" />
        <mxCell id="h9i3hl5M1HiLqKqyad1d-1" value="&amp;nbsp; &amp;nbsp; &amp;nbsp; &amp;nbsp; &amp;nbsp; &amp;nbsp;user" style="shape=umlActor;verticalLabelPosition=bottom;verticalAlign=top;html=1;outlineConnect=0;" vertex="1" parent="1">
          <mxGeometry x="360" y="200" width="30" height="60" as="geometry" />
        </mxCell>
        <mxCell id="h9i3hl5M1HiLqKqyad1d-2" value="account registration" style="ellipse;whiteSpace=wrap;html=1;" vertex="1" parent="1">
          <mxGeometry x="300" y="310" width="150" height="80" as="geometry" />
        </mxCell>
        <mxCell id="h9i3hl5M1HiLqKqyad1d-3" value="game selection from the list" style="ellipse;whiteSpace=wrap;html=1;" vertex="1" parent="1">
          <mxGeometry x="280" y="450" width="120" height="80" as="geometry" />
        </mxCell>
        <mxCell id="h9i3hl5M1HiLqKqyad1d-5" value="deleting an account" style="ellipse;whiteSpace=wrap;html=1;" vertex="1" parent="1">
          <mxGeometry x="600" y="450" width="120" height="80" as="geometry" />
        </mxCell>
        <mxCell id="h9i3hl5M1HiLqKqyad1d-6" value="editing an account" style="ellipse;whiteSpace=wrap;html=1;" vertex="1" parent="1">
          <mxGeometry x="120" y="450" width="120" height="80" as="geometry" />
        </mxCell>
        <mxCell id="h9i3hl5M1HiLqKqyad1d-7" value="choosing a friend" style="ellipse;whiteSpace=wrap;html=1;" vertex="1" parent="1">
          <mxGeometry x="440" y="450" width="120" height="80" as="geometry" />
        </mxCell>
        <mxCell id="h9i3hl5M1HiLqKqyad1d-8" value="removing games from the list" style="ellipse;whiteSpace=wrap;html=1;" vertex="1" parent="1">
          <mxGeometry x="230" y="570" width="150" height="90" as="geometry" />
        </mxCell>
        <mxCell id="h9i3hl5M1HiLqKqyad1d-9" value="removing friend from the list" style="ellipse;whiteSpace=wrap;html=1;" vertex="1" parent="1">
          <mxGeometry x="440" y="570" width="150" height="90" as="geometry" />
        </mxCell>
        <mxCell id="h9i3hl5M1HiLqKqyad1d-10" value="" style="endArrow=classic;html=1;rounded=0;exitX=0.5;exitY=1;exitDx=0;exitDy=0;entryX=0.667;entryY=0;entryDx=0;entryDy=0;entryPerimeter=0;" edge="1" parent="1" source="h9i3hl5M1HiLqKqyad1d-2" target="h9i3hl5M1HiLqKqyad1d-3">
          <mxGeometry width="50" height="50" relative="1" as="geometry">
            <mxPoint x="390" y="490" as="sourcePoint" />
            <mxPoint x="440" y="440" as="targetPoint" />
          </mxGeometry>
        </mxCell>
        <mxCell id="h9i3hl5M1HiLqKqyad1d-11" value="" style="endArrow=classic;html=1;rounded=0;exitX=0.5;exitY=1;exitDx=0;exitDy=0;entryX=0.28;entryY=0.065;entryDx=0;entryDy=0;entryPerimeter=0;" edge="1" parent="1" source="h9i3hl5M1HiLqKqyad1d-2" target="h9i3hl5M1HiLqKqyad1d-7">
          <mxGeometry width="50" height="50" relative="1" as="geometry">
            <mxPoint x="385" y="400" as="sourcePoint" />
            <mxPoint x="370.03999999999996" y="460" as="targetPoint" />
          </mxGeometry>
        </mxCell>
        <mxCell id="h9i3hl5M1HiLqKqyad1d-12" value="" style="endArrow=classic;html=1;rounded=0;entryX=1;entryY=0;entryDx=0;entryDy=0;exitX=0.5;exitY=1;exitDx=0;exitDy=0;" edge="1" parent="1" source="h9i3hl5M1HiLqKqyad1d-2" target="h9i3hl5M1HiLqKqyad1d-6">
          <mxGeometry width="50" height="50" relative="1" as="geometry">
            <mxPoint x="380" y="390" as="sourcePoint" />
            <mxPoint x="380.03999999999996" y="470" as="targetPoint" />
          </mxGeometry>
        </mxCell>
        <mxCell id="h9i3hl5M1HiLqKqyad1d-13" value="" style="endArrow=classic;html=1;rounded=0;entryX=0.5;entryY=0;entryDx=0;entryDy=0;" edge="1" parent="1" source="h9i3hl5M1HiLqKqyad1d-1" target="h9i3hl5M1HiLqKqyad1d-2">
          <mxGeometry width="50" height="50" relative="1" as="geometry">
            <mxPoint x="405" y="420" as="sourcePoint" />
            <mxPoint x="380" y="320" as="targetPoint" />
          </mxGeometry>
        </mxCell>
        <mxCell id="h9i3hl5M1HiLqKqyad1d-14" value="" style="endArrow=classic;html=1;rounded=0;entryX=0;entryY=0;entryDx=0;entryDy=0;exitX=0.5;exitY=1;exitDx=0;exitDy=0;" edge="1" parent="1" source="h9i3hl5M1HiLqKqyad1d-2" target="h9i3hl5M1HiLqKqyad1d-5">
          <mxGeometry width="50" height="50" relative="1" as="geometry">
            <mxPoint x="380" y="390" as="sourcePoint" />
            <mxPoint x="400.03999999999996" y="490" as="targetPoint" />
          </mxGeometry>
        </mxCell>
        <mxCell id="h9i3hl5M1HiLqKqyad1d-15" value="" style="endArrow=classic;html=1;rounded=0;exitX=0.5;exitY=1;exitDx=0;exitDy=0;entryX=0.5;entryY=0;entryDx=0;entryDy=0;" edge="1" parent="1" source="h9i3hl5M1HiLqKqyad1d-3" target="h9i3hl5M1HiLqKqyad1d-8">
          <mxGeometry width="50" height="50" relative="1" as="geometry">
            <mxPoint x="425" y="440" as="sourcePoint" />
            <mxPoint x="410.03999999999996" y="500" as="targetPoint" />
          </mxGeometry>
        </mxCell>
        <mxCell id="h9i3hl5M1HiLqKqyad1d-16" value="" style="endArrow=classic;html=1;rounded=0;exitX=0.5;exitY=1;exitDx=0;exitDy=0;entryX=0.5;entryY=0;entryDx=0;entryDy=0;" edge="1" parent="1" source="h9i3hl5M1HiLqKqyad1d-7" target="h9i3hl5M1HiLqKqyad1d-9">
          <mxGeometry width="50" height="50" relative="1" as="geometry">
            <mxPoint x="435" y="450" as="sourcePoint" />
            <mxPoint x="420.03999999999996" y="510" as="targetPoint" />
          </mxGeometry>
        </mxCell>
      </root>
    </mxGraphModel>
  </diagram>
</mxfile>
